<svg xmlns="http://www.w3.org/2000/svg" width="279.997" height="146.053" viewBox="0 0 279.997 146.053"><defs><style>.a{fill:#2d3c5a;}</style></defs><g transform="translate(-99.489 -141.263)"><path class="a" d="M235.23,217.184H215.9l2.2-33.589-12.55,33.589H187.607l28.473-75.921h19.1l-2.2,34.049,12.788-34.049H263.7Z" transform="translate(-50.18 0)"/><path class="a" d="M303.634,217.184l28.473-75.921h17.945L321.58,217.184Z" transform="translate(-116.254 0)"/><path class="a" d="M135.357,250.911c-25.077,29.448-48.732,68.632-27.838,86.677,20.246,17.485,45.553,7.132,62.808.23s207.979-89.725,207.979-89.725c1.84-.92,1.5-2.07-.806-1.5-.928.232-207.633,56.251-207.633,56.251C143.64,310.211,113.731,294.163,135.357,250.911Z" transform="translate(0 -59.897)"/><path class="a" d="M459.2,153.916l4.822-12.653H409.269l-18.8,22.776,8.68-22.776H380.971l-28.243,75.921h17.945l12.058-31.749.826,31.749,55.062-.119,5.242-14.6H422.925l6.878-18.405h17.255l5.308-14.149H435.112l5.915-15.99ZM401.36,212.123l-1.15-39.571,27.132-29.789Z" transform="translate(-144.211)"/></g></svg>